<svg width="24" height="24" viewBox="0 0 24 24" fill="none" xmlns="http://www.w3.org/2000/svg">
<g clip-path="url(#clip0)">
<path d="M21.135 20.5005H19.2486V14.0268C19.2486 12.624 18.1073 11.4827 16.7044 11.4827H7.29575C5.89289 11.4827 4.75156 12.6239 4.75156 14.0268V20.5006H2.86522C2.5795 20.5006 2.34784 20.7322 2.34784 21.0179C2.34784 21.3037 2.5795 21.5353 2.86522 21.5353H5.26111C5.2637 21.5354 5.26635 21.5354 5.26893 21.5354H18.7312C18.7338 21.5354 18.7364 21.5354 18.739 21.5353H21.135C21.4207 21.5353 21.6523 21.3037 21.6523 21.0179C21.6523 20.7322 21.4207 20.5005 21.135 20.5005ZM12.5176 12.5174H15.7549V14.1379C15.7549 14.4415 15.508 14.6886 15.2043 14.6886C14.9006 14.6886 14.6535 14.4416 14.6535 14.1379C14.6535 13.8522 14.4219 13.6205 14.1361 13.6205C13.8504 13.6205 13.6188 13.8522 13.6188 14.1379V15.8876C13.6188 16.1912 13.3717 16.4383 13.068 16.4383C12.7645 16.4383 12.5175 16.1913 12.5175 15.8876V12.5174H12.5176ZM18.2138 20.5005H5.78631V14.0268C5.78631 13.1945 6.46349 12.5174 7.29575 12.5174H11.4829V15.8875C11.4829 16.7618 12.194 17.473 13.0681 17.473C13.9423 17.473 14.6536 16.7618 14.6536 15.8875V15.6246C14.8252 15.6884 15.0108 15.7233 15.2043 15.7233C16.0786 15.7233 16.7897 15.0121 16.7897 14.1378V12.5198C17.5826 12.5641 18.2139 13.2231 18.2139 14.0267V20.5005H18.2138ZM21.9798 2.46472H17.9507C17.0156 2.46472 16.2268 3.10329 15.9976 3.9673H3.10314C3.09842 3.9673 3.0937 3.96737 3.08904 3.9675H0.517374C0.231654 3.9675 0 4.19915 0 4.48487V5.83548C0 6.08847 0.182956 6.30435 0.432524 6.34587L10.7113 8.05566C10.8306 8.07551 10.9498 8.08528 11.0686 8.08528C11.6005 8.08528 12.1203 7.88854 12.5617 7.51448C13.2032 6.97085 13.6017 6.10587 13.6017 5.25705V5.00212H15.9975C16.2265 5.86652 17.0154 6.50554 17.9508 6.50554H21.9798C23.0938 6.50554 24.0001 5.59917 24.0001 4.48513C24 3.3711 23.0938 2.46472 21.9798 2.46472ZM12.5669 5.25705C12.5669 5.81013 12.3085 6.37264 11.8926 6.7251C11.6774 6.90741 11.3274 7.1088 10.8809 7.03494L1.03475 5.39707V5.00231H12.5669V5.25705ZM21.9798 5.47079H17.9507C17.4073 5.47079 16.9651 5.02863 16.9651 4.48513C16.9651 3.94169 17.4073 3.49953 17.9507 3.49953H21.9798C22.5232 3.49953 22.9653 3.94169 22.9653 4.48513C22.9653 5.02863 22.5232 5.47079 21.9798 5.47079Z" fill="black"/>
</g>
<defs>
<clipPath id="clip0">
<rect width="24" height="24" fill="white"/>
</clipPath>
</defs>
</svg>
