<svg height="511pt" viewBox="-2 0 511 511.99882" width="511pt" xmlns="http://www.w3.org/2000/svg"><path d="m262.25 295.125c-.925781-2.414062-2.027344-4.773438-3.238281-7.066406-.78125-1.480469-1.691407-2.882813-2.589844-4.316406-.636719-1.023438-1.277344-2.035157-1.964844-3.027344-1.035156-1.484375-2.113281-2.90625-3.257812-4.308594-.660157-.804688-1.367188-1.566406-2.054688-2.339844-2.160156-2.410156-4.460937-4.640625-6.933593-6.734375-.886719-.753906-1.738282-1.558593-2.664063-2.261719-1.167969-.890624-2.371094-1.664062-3.582031-2.476562-1.425782-.953125-2.875-1.851562-4.355469-2.683594-1.011719-.5625-2.015625-1.117187-3.058594-1.621094-2.644531-1.289062-5.328125-2.445312-8.089843-3.296874-2.253907-.695313-4.488282-1.175782-6.714844-1.546876-.457032-.074218-.914063-.144531-1.375-.199218-4.546875-.621094-8.988282-.574219-13.199219.140625-.09375.019531-.199219.039062-.296875.058593-5.546875.992188-10.695312 3.066407-15.097656 6.3125-.441406.324219-.746094.777344-1.175782 1.109376-1.183593.953124-2.265624 2.035156-3.316406 3.152343-.734375.78125-1.535156 1.488281-2.1875 2.339844-1.382812 1.777344-2.617187 3.695313-3.675781 5.785156-.019531.039063-.011719.078125-.03125.117188-2.757813 5.492187-4.285156 11.804687-4.285156 18.757812 0 25.796875 20.074219 52.234375 45.703125 60.171875 4.839844 1.5 9.664062 2.234375 14.304687 2.234375 8.332031 0 16.09375-2.378906 22.378907-7.007812 9.457031-6.972657 14.671874-18.082031 14.671874-31.261719 0-6.753906-1.433593-13.527344-3.925781-20.019531.011719-.003907.011719-.003907.011719-.011719zm-69.035156-18.109375c.90625-.953125 1.945312-1.746094 3.0625-2.433594.640625-.398437 1.339844-.707031 2.046875-1.011719.972656-.429687 1.976562-.820312 3.054687-1.078124.792969-.183594 1.625-.261719 2.464844-.34375 1.242188-.132813 2.484375-.257813 3.8125-.179688.351562.015625.714844.046875 1.078125.09375 1.957031.191406 3.984375.542969 6.082031 1.191406 1.976563.613282 3.898438 1.453125 5.789063 2.390625.390625.1875.773437.390625 1.15625.589844 3.839843 2.0625 7.449219 4.726563 10.660156 7.851563.160156.160156.332031.3125.496094.484374 3.105469 3.097657 5.796875 6.609376 8.003906 10.335938.324219.5625.648437 1.117188.957031 1.691406.199219.371094.339844.761719.542969 1.136719-4.757813 5.308594-12.769531 6.875-21.957031 4.058594-11.378906-3.535157-21.828125-12.847657-27.660156-24.375.132812-.152344.277343-.265625.410156-.402344zm46.941406 54.042969c-4.917969 3.628906-11.910156 4.285156-19.691406 1.898437-12.1875-3.78125-22.925782-14.277343-28.398438-26.140625 6.792969 5.996094 14.558594 10.667969 22.742188 13.207032 4.832031 1.492187 9.609375 2.21875 14.183594 2.21875 6.464843 0 12.511718-1.511719 17.8125-4.25-.582032 5.632812-2.828126 10.257812-6.648438 13.066406zm0 0"/><path d="m393.546875 323.15625c-10.371094-3.207031-20.636719-1.824219-28.222656 3.773438-7.265625 5.359374-11.433594 14.175781-11.433594 24.195312 0 19.242188 14.941406 38.9375 34.015625 44.839844 3.675781 1.136718 7.332031 1.703125 10.878906 1.703125 6.433594 0 12.453125-1.855469 17.34375-5.464844 7.269532-5.355469 11.433594-14.164063 11.433594-24.183594-.011719-19.253906-14.949219-38.96875-34.015625-44.863281zm11.234375 53.671875c-2.695312 1.984375-6.695312 2.308594-11.242188.894531-11.144531-3.445312-20.554687-15.632812-20.554687-26.597656 0-2.789062.632813-6.582031 3.667969-8.828125 1.59375-1.164063 3.628906-1.765625 5.96875-1.765625 1.636718 0 3.402344.285156 5.273437.867188 11.144531 3.449218 20.554688 15.636718 20.554688 26.613281 0 2.789062-.628907 6.578125-3.667969 8.816406zm0 0"/><path d="m126.117188 304.058594c-10.363282-3.210938-20.640626-1.824219-28.222657 3.769531-7.269531 5.359375-11.433593 14.175781-11.433593 24.195313 0 19.246093 14.9375 38.9375 34.011718 44.84375 3.679688 1.132812 7.335938 1.699218 10.878906 1.699218 6.4375 0 12.453126-1.851562 17.34375-5.464844 7.269532-5.355468 11.433594-14.164062 11.433594-24.183593-.007812-19.253907-14.949218-38.96875-34.011718-44.859375zm11.230468 53.664062c-2.691406 1.988282-6.695312 2.300782-11.242187.898438-11.144531-3.449219-20.550781-15.632813-20.550781-26.601563 0-2.785156.628906-6.578125 3.664062-8.824219 1.597656-1.164062 3.632812-1.765624 5.972656-1.765624 1.632813 0 3.398438.285156 5.273438.867187 11.144531 3.449219 20.550781 15.636719 20.550781 26.609375 0 2.792969-.628906 6.582031-3.667969 8.816406zm0 0"/><path d="m326.691406 389.40625c-7.738281-2.378906-15.511718-1.335938-21.320312 2.949219-5.585938 4.125-8.785156 10.832031-8.785156 18.414062 0 13.898438 10.746093 28.101563 24.460937 32.351563 2.710937.839844 5.425781 1.261718 8.0625 1.261718 4.890625 0 9.484375-1.421874 13.257813-4.203124 5.585937-4.125 8.796874-10.839844 8.796874-18.425782-.023437-13.90625-10.769531-28.105468-24.472656-32.347656zm4.324219 35.375c-.839844.621094-2.492187.652344-4.324219.089844-5.769531-1.789063-11.003906-8.511719-11.003906-14.109375 0-.6875.105469-2.359375 1.023438-3.027344.429687-.324219 1.085937-.488281 1.890624-.488281.722657 0 1.554688.136718 2.433594.402344 5.769532 1.785156 11 8.5 11 14.097656.003906.6875-.101562 2.347656-1.019531 3.035156zm0 0"/><path d="m314.226562 329.558594c2.710938.839844 5.425782 1.261718 8.070313 1.261718 4.882813 0 9.484375-1.425781 13.257813-4.203124 5.589843-4.125 8.789062-10.832032 8.789062-18.414063 0-13.898437-10.746094-28.101563-24.460938-32.351563-7.765624-2.398437-15.519531-1.328124-21.3125 2.953126-5.585937 4.125-8.796874 10.839843-8.796874 18.421874-.007813 13.878907 10.738281 28.089844 24.453124 32.332032zm-4.324218-35.378906c.4375-.324219 1.097656-.484376 1.886718-.484376.726563 0 1.558594.132813 2.4375.398438 5.769532 1.785156 11 8.511719 11 14.105469 0 .691406-.105468 2.359375-1.019531 3.03125-.820312.621093-2.492187.636719-4.328125.085937-5.769531-1.785156-11-8.5-11-14.097656-.011718-.6875.09375-2.359375 1.023438-3.039062zm0 0"/><path d="m105.554688 207.894531c0-14.871093-11.511719-30.085937-26.210938-34.652343-8.242188-2.570313-16.472656-1.414063-22.585938 3.105468-5.894531 4.34375-9.285156 11.441406-9.285156 19.476563 0 14.878906 11.519532 30.09375 26.21875 34.640625 2.894532.898437 5.777344 1.335937 8.574219 1.335937 5.167969 0 10.039063-1.5 14.011719-4.429687 5.90625-4.347656 9.277344-11.441406 9.277344-19.476563zm-20.613282 4.089844c-1.175781.867187-3.292968.964844-5.597656.238281-6.796875-2.109375-12.769531-9.761718-12.769531-16.398437 0-1.121094.203125-3.132813 1.511719-4.109375.648437-.476563 1.574218-.714844 2.664062-.714844.886719 0 1.882812.160156 2.941406.484375 6.800782 2.113281 12.761719 9.773437 12.761719 16.410156-.003906 1.117188-.195313 3.132813-1.511719 4.089844zm0 0"/><path d="m468.773438 337.820312c.152343-.660156.441406-1.222656.667968-1.835937.222656-.589844.375-1.222656.652344-1.757813.015625-.039062.054688-.066406.074219-.101562.527343-.984375 1.175781-1.863281 1.910156-2.65625.964844-1.042969 2.121094-1.863281 3.417969-2.503906.261718-.132813.546875-.230469.8125-.34375 1.242187-.515625 2.589844-.867188 4.050781-1.03125.199219-.015625.382813-.074219.589844-.09375 1.222656-.105469 2.515625-.039063 3.832031.117187.152344.015625.292969 0 .449219.015625h.007812c.105469.011719.238281.070313.355469.085938 1.183594.191406 2.359375.480468 3.660156.898437.761719.25 1.601563.613281 2.433594.957031.503906.210938 1.019531.382813 1.527344.601563.546875.25 1.109375.382813 1.679687.515625.203125.046875.394531.144531.59375.179688.695313.125 1.394531.144531 2.089844.117187.085937 0 .175781.015625.261719.007813.742187-.046876 1.480468-.199219 2.195312-.429688.039063-.007812.074219-.007812.121094-.015625.46875-.152344.898438-.414063 1.339844-.640625.277344-.144531.574218-.230469.828125-.402344 1.949219-1.25 3.304687-3.160156 3.957031-5.308594.257812-.878906.429688-1.777343.429688-2.710937v-21.339844c0-20.554687-9.65625-40.324219-25.847657-52.980469l-165.953125-156.980468c-3.503906-3.316406-8.917968-3.507813-12.625-.441406-2.988281 2.464843-7.410156 2.972656-12.484375 1.394531-11.863281-3.675781-21.882812-16.65625-21.882812-28.347657 0-2.417968.46875-4.566406 1.386719-6.378906 1.898437-3.773437 1.097656-8.339844-1.957032-11.242187l-28.464844-26.914063c-.25-.230468-.503906-.449218-.773437-.648437-22.226563-16.945313-49.496094-22.246094-69.847656-13.324219l-141.257813 68.140625c-16.066406 6.941406-26.457031 23.21875-26.496094 41.585937l-.007812.039063v150.480469c0 2.835937 1.261719 5.519531 3.4375 7.34375 2.179688 1.804687 5.023438 2.550781 7.832031 2.054687 3.179688-.601562 6.570313-.34375 10.039063.734375 14.335937 4.441406 26.449218 20.144532 26.449218 34.308594 0 5.464844-1.882812 9.867188-5.300781 12.386719-3.824219 2.820312-9.3125 3.316406-15.503906 1.398437-3.792969-1.175781-7.640625-3.316406-11.410156-6.351562-2.875-2.292969-6.800781-2.769532-10.125-1.164063-3.316407 1.585938-5.417969 4.933594-5.417969 8.605469v20.65625c0 20.546875 13.917969 38.378906 33.46875 43.238281l417.234375 122.90625c3.628906.914063 7.296875 1.355469 10.933594 1.355469 9.832031 0 19.429687-3.257812 27.40625-9.484375 10.925781-8.527344 17.179687-21.355469 17.179687-35.214844v-79.65625c0-2.351562-.847656-4.519531-2.28125-6.1875-1.433594-1.683593-3.441406-2.875-5.757812-3.25-.203125-.027343-.402344-.113281-.601563-.152343-8.464843-1.585938-16.832031-7.554688-22.542969-15.339844-2.730468-3.734375-4.746093-7.878906-5.976562-12.136719-.34375-1.207031-.726562-2.398437-.929688-3.613281-.277343-1.707032-.390624-3.371094-.363281-4.925782.019531-.824218.175781-1.558593.269531-2.324218.074219-.632813.09375-1.304688.234376-1.894532zm-433.832032-248.035156 141.300782-68.167968c13.667968-5.96875 33.207031-1.699219 49.894531 10.859374l23.59375 22.3125c-.601563 2.5625-.898438 5.226563-.898438 7.996094 0 19.988282 15.519531 40.449219 35.339844 46.589844 8.03125 2.492188 15.988281 2.28125 22.769531-.457031l152.015625 143.8125-164.316406-48.941407c-4.195313-16.265624-17.472656-31.109374-33.824219-36.164062-10.703125-3.3125-21.328125-1.890625-29.199218 3.890625-3.867188 2.84375-6.828126 6.558594-8.824219 10.886719l-192.445313-57.277344c-5.914062-1.136719-9.351562-5.207031-10.199218-12.113281-.058594-.429688-.269532-.820313-.394532-1.238281.773438-9.753907 6.398438-18.1875 15.1875-21.988282zm242.101563 124.433594c0 3.027344-.695313 7.164062-4.039063 9.617188-2.941406 2.179687-7.257812 2.53125-12.1875 1.011718-1.480468-.457031-2.941406-1.058594-4.34375-1.792968-8.453125-4.375-15.292968-13.230469-17.078125-22.101563-.296875-1.460937-.449219-2.925781-.449219-4.367187.039063-.207032.164063-1.25.179688-1.453126.019531-.226562-.066406-.4375-.054688-.65625.292969-2.667968 1.261719-5.644531 3.902344-7.59375 1.75-1.292968 3.984375-1.941406 6.542969-1.941406 1.757813 0 3.667969.308594 5.664063.925782 11.097656 3.441406 20.460937 14.996093 21.644531 26.046874.007812.085938-.011719.164063-.011719.25zm210.554687 253.085938c0 7.929687-3.578125 15.28125-9.835937 20.152343-6.257813 4.902344-14.230469 6.570313-21.566407 4.769531l-417.222656-122.90625c-11.40625-2.855468-19.371094-13.058593-19.371094-24.824218v-4.25c.734376.265625 1.472657.523437 2.207032.746094 11.9375 3.707031 23.761718 2.136718 32.472656-4.269532 8.425781-6.210937 13.066406-16.074218 13.066406-27.757812 0-22.539063-17.527344-45.625-39.894531-52.550782-2.617187-.8125-5.253906-1.375-7.859375-1.660156v-112.980468c1.957031.839843 4.039062 1.46875 6.21875 1.878906l194.324219 57.890625c.058593.460937.210937.910156.289062 1.367187.160157 1.003906.398438 1.996094.628907 3 .316406 1.375.679687 2.722656 1.128906 4.078125.332031 1.019531.714844 2.015625 1.125 3.007813.527344 1.289062 1.101562 2.558594 1.738281 3.8125.5.992187 1.023437 1.957031 1.585937 2.910156.71875 1.214844 1.484376 2.371094 2.292969 3.527344.640625.914062 1.28125 1.824218 1.976563 2.710937.890625 1.117188 1.84375 2.160157 2.820312 3.199219.753906.8125 1.488282 1.632812 2.289063 2.386719 1.070312 1.019531 2.21875 1.9375 3.375 2.867187.808593.65625 1.59375 1.34375 2.441406 1.957032 1.328125.945312 2.734375 1.746093 4.148437 2.550781.761719.4375 1.488282.945312 2.28125 1.34375 2.234376 1.128906 4.535157 2.09375 6.914063 2.828125 2.398437.746094 4.785156 1.164062 7.144531 1.433594.640625.074218 1.261719.101562 1.890625.148437.734375.050781 1.492188.175781 2.226563.175781 1.308594 0 2.578125-.136718 3.847656-.277344.238281-.03125.488281-.019531.726562-.058593 2.1875-.304688 4.277344-.878907 6.292969-1.613281.46875-.175782.925781-.367188 1.386719-.566407 1.996094-.847656 3.925781-1.832031 5.671875-3.121093 1.691406-1.25 3.152344-2.710938 4.488281-4.269532.355469-.402344.679688-.820312 1.011719-1.242187 1.15625-1.5 2.199219-3.09375 3.039063-4.824219.074218-.152344.171874-.277344.246093-.429688.699219-1.488281 1.292969-3.035156 1.75-4.667968l172.503907 51.347656c11.71875 2.511719 20.21875 13.015625 20.21875 25.003906v8.550782c-2.949219-.394532-5.804688-.441407-8.566407-.203126-2.367187.210938-4.632812.679688-6.800781 1.320313-.753906.21875-1.46875.53125-2.195312.808594-1.511719.566406-2.96875 1.214843-4.367188 2-.675781.378906-1.335938.773437-1.984375 1.203125-1.460937.972656-2.808594 2.070312-4.097656 3.285156-.324219.304688-.71875.503906-1.03125.828125-.105469.105469-.164063.25-.265625.363281-.175782.183594-.375.308594-.546875.5-.007813.007813-.007813.007813-.019531.015625-.90625 1.003907-1.554688 2.246094-2.339844 3.375-.628906.914063-1.363282 1.753907-1.898438 2.738281-.09375.171876-.230468.296876-.316406.460938-.773438 1.480469-1.230469 3.113281-1.785156 4.707031-.277344.8125-.6875 1.558594-.90625 2.398438-.5625 2.101562-.824219 4.34375-1.011719 6.609375-.058594.636718-.230469 1.230468-.261719 1.882812 0 .101563-.039062.199219-.039062.304688-.066406 2.453125.175781 5.023437.535156 7.613281.058594.390625.011719.753906.066406 1.144531.449219 2.722656 1.167969 5.398438 2.054688 8.035156.066406.1875.074218.378907.144531.5625.3125.914063.734375 1.863282 1.453125 3.410157.484375 1.144531.953125 2.292969 1.515625 3.410156.203125.429687.363281.867187.59375 1.296875.542969 1.023438 1.191406 1.976562 1.8125 2.941406.546875.890625 1.089844 1.769532 1.671875 2.628906l-.007812.007813c.382812.640625.78125 1.28125 1.175781 1.796875 1.554687 2.128906 3.285156 4.125 4.746093 5.652344.199219.238281.617188.746094.847657.976562.660156.675782 1.375 1.25 2.054687 1.890625.316406.292969.640625.589844.964844.886719 1.59375 1.441406 3.238281 2.769531 4.9375 4.011719.308594.21875.601562.449219.910156.664062 1.785156 1.253907 3.617188 2.382813 5.492188 3.390625.285156.152344.554687.335938.839844.476563 2.175781 1.128906 4.390624 2.140625 6.648437 2.933593v72.292969h-.042969zm0 0"/></svg>