<svg width="24" height="24" viewBox="0 0 24 24" fill="none" xmlns="http://www.w3.org/2000/svg">
<path d="M23.6 15.3999C23.8209 15.3999 24 15.2208 24 14.9999V11.7999C24 11.579 23.8209 11.3999 23.6 11.3999H18.5656L21.0828 8.88274C21.239 8.72654 21.239 8.47334 21.0828 8.31714L18.8972 6.13154C18.741 5.97539 18.4878 5.97539 18.3316 6.13154C17.7066 6.75649 16.6934 6.75649 16.0684 6.13154C15.4435 5.50659 15.4435 4.49329 16.0684 3.86834C16.2246 3.71214 16.2246 3.45894 16.0684 3.30274L14.2828 1.51714C14.1266 1.36099 13.8734 1.36099 13.7172 1.51714L3.8344 11.3999H0.4C0.1791 11.3999 0 11.579 0 11.7999V14.9999C0 15.2208 0.1791 15.3999 0.4 15.3999C1.28365 15.3999 2 16.1163 2 16.9999C2 17.8836 1.28365 18.5999 0.4 18.5999C0.1791 18.5999 0 18.779 0 18.9999V22.1999C0 22.4208 0.1791 22.5999 0.4 22.5999H23.6C23.8209 22.5999 24 22.4208 24 22.1999V18.9999C24 18.779 23.8209 18.5999 23.6 18.5999C22.7164 18.5999 22 17.8836 22 16.9999C22 16.1163 22.7164 15.3999 23.6 15.3999ZM14 2.36554L15.2432 3.60874C14.4727 4.68724 14.7223 6.18619 15.8008 6.95674C16.6353 7.55304 17.7567 7.55304 18.5912 6.95674L20.2344 8.59994L17.4344 11.3999H16.1656L17.0828 10.4827C17.239 10.3265 17.239 10.0733 17.0828 9.91714L12.6828 5.51714C12.5266 5.36099 12.2734 5.36099 12.1172 5.51714L6.2344 11.3999H4.9656L14 2.36554ZM15.0344 11.3999H7.3656L12.4 6.36554L16.2344 10.1999L15.0344 11.3999ZM21.231 17.3977C21.4006 18.4066 22.1911 19.1971 23.2 19.3667V21.7999H20V20.1999H19.2V21.7999H4.8V21.3999H4V21.7999H0.8V19.3667C2.10715 19.147 2.9887 17.9093 2.769 16.6021C2.5994 15.5932 1.80895 14.8027 0.8 14.6331V12.1999H4V13.3999H4.8V12.1999H23.2V14.6331C21.8929 14.8528 21.0113 16.0906 21.231 17.3977Z" fill="black"/>
<path d="M20 12.9999H19.2V14.5999H20V12.9999Z" fill="black"/>
<path d="M20 15.3999H19.2V16.9999H20V15.3999Z" fill="black"/>
<path d="M20 17.7999H19.2V19.3999H20V17.7999Z" fill="black"/>
<path d="M4.8 14.2H4V15.8H4.8V14.2Z" fill="black"/>
<path d="M4.8 16.6H4V18.2H4.8V16.6Z" fill="black"/>
<path d="M4.8 18.9999H4V20.5999H4.8V18.9999Z" fill="black"/>
<path d="M17.6 14.1999C17.1581 14.1999 16.8 13.8417 16.8 13.3999C16.8 13.179 16.6209 12.9999 16.4 12.9999H7.6C7.3791 12.9999 7.2 13.179 7.2 13.3999C7.2 13.8417 6.84185 14.1999 6.4 14.1999C6.1791 14.1999 6 14.379 6 14.5999V19.3999C6 19.6208 6.1791 19.7999 6.4 19.7999C6.84185 19.7999 7.2 20.158 7.2 20.5999C7.2 20.8208 7.3791 20.9999 7.6 20.9999H16.4C16.6209 20.9999 16.8 20.8208 16.8 20.5999C16.8 20.158 17.1581 19.7999 17.6 19.7999C17.8209 19.7999 18 19.6208 18 19.3999V14.5999C18 14.379 17.8209 14.1999 17.6 14.1999ZM17.2 19.0503C16.6369 19.197 16.1971 19.6367 16.0504 20.1999H7.9496C7.8029 19.6367 7.36315 19.197 6.8 19.0503V14.9495C7.36315 14.8028 7.8029 14.363 7.9496 13.7999H16.0504C16.1971 14.363 16.6369 14.8028 17.2 14.9495V19.0503Z" fill="black"/>
</svg>
