<svg height="512pt" viewBox="-140 0 512 512.001" width="512pt" xmlns="http://www.w3.org/2000/svg"><path d="m149.523438 306.042969c43.164062-28.050781 72.382812-73.324219 80.164062-124.210938 3.585938-23.441406 2.558594-47.011719-3.050781-70.054687l-25.351563-104.140625c-1.089844-4.484375-5.105468-7.636719-9.71875-7.636719h-151.355468c-4.613282 0-8.625 3.152344-9.714844 7.636719l-25.351563 104.140625c-5.609375 23.042968-6.636719 46.613281-3.054687 70.058594 7.78125 50.886718 37 96.15625 80.167968 124.207031l23.632813 15.355469v132.75l-77.820313 38.90625c-4.148437 2.074218-6.324218 6.730468-5.257812 11.242187 1.066406 4.515625 5.09375 7.703125 9.730469 7.703125h166.691406c4.636719 0 8.667969-3.1875 9.730469-7.703125 1.066406-4.511719-1.109375-9.164063-5.257813-11.242187l-77.816406-38.90625v-132.75zm-101.453126-286.042969h135.640626l20.484374 84.144531h-176.609374zm-26.207031 158.808594c-2.792969-18.265625-2.4375-36.617188 1.046875-54.664063h185.957032c3.488281 18.046875 3.84375 36.398438 1.050781 54.664063-6.917969 45.257812-32.90625 85.519531-71.292969 110.464844l-22.734375 14.773437-22.734375-14.773437c-38.390625-24.945313-64.375-65.207032-71.292969-110.464844zm53.042969 313.191406 40.984375-20.492188 40.984375 20.492188zm0 0"/><path d="m137.734375 262.351562c2.359375 0 4.726563-.832031 6.628906-2.515624 21.550781-19.105469 36.550781-43.980469 43.382813-71.941407 1.3125-5.363281-1.972656-10.777343-7.339844-12.085937s-10.777344 1.976562-12.085938 7.339844c-5.863281 23.988281-18.734374 45.332031-37.222656 61.71875-4.132812 3.664062-4.511718 9.984374-.847656 14.117187 1.972656 2.230469 4.722656 3.367187 7.484375 3.367187zm0 0"/><path d="m181.390625 157.460938c2.628906 0 5.207031-1.0625 7.070313-2.921876 1.859374-1.867187 2.929687-4.4375 2.929687-7.078124 0-2.632813-1.070313-5.210938-2.929687-7.070313-1.863282-1.859375-4.441407-2.929687-7.070313-2.929687-2.632813 0-5.210937 1.070312-7.070313 2.929687-1.859374 1.859375-2.929687 4.4375-2.929687 7.070313 0 2.640624 1.070313 5.210937 2.929687 7.078124 1.859376 1.859376 4.4375 2.921876 7.070313 2.921876zm0 0"/></svg>